<svg xmlns="http://www.w3.org/2000/svg" width="512" height="512" viewBox="0 0 612 612"><g fill="#3ec7c2"><path d="M387.172 387.192c-22.415 22.415-51.803 33.632-81.172 33.632s-58.757-11.197-81.152-33.612l-.02-.02c-22.415-22.415-33.612-51.805-33.612-81.173h.04c-.02-29.37 11.198-58.757 33.553-81.133l.02-.02-.02-.02c22.415-22.415 51.804-33.613 81.192-33.613 29.309 0 58.697 11.198 81.112 33.613l.021.02.021.02.02.02c22.415 22.435 33.593 51.804 33.593 81.113.017 29.37-11.201 58.758-33.596 81.173zm-13.548-13.529c18.688-18.669 28.033-43.176 28.033-67.663 0-24.507-9.324-49.014-27.975-67.644l-.04-.04c-18.629-18.649-43.137-27.974-67.624-27.974-24.486 0-48.974 9.345-67.643 28.014l-.02-.02c-18.669 18.709-28.034 43.196-28.034 67.664h.04c0 24.467 9.345 48.975 28.014 67.623 18.669 18.67 43.136 28.015 67.624 28.015 24.468.039 48.955-9.305 67.625-27.975z"/><path d="M592.872 306.02c0-79.22-32.118-150.947-84.021-202.851C456.948 51.246 385.22 19.127 306 19.127s-150.948 32.118-202.851 84.021C51.246 155.052 19.127 226.8 19.127 306.02c0 79.221 32.118 150.948 84.021 202.853S226.78 592.893 306 592.893s150.948-32.117 202.851-84.021c51.903-51.904 84.021-123.652 84.021-202.852zM522.38 89.62C577.75 144.99 612 221.5 612 306c0 84.479-34.25 161.01-89.62 216.38S390.5 612 306 612s-161.01-34.25-216.38-89.62S0 390.52 0 306.02 34.25 145.011 89.62 89.642C144.99 34.271 221.5 0 306 0s161.01 34.25 216.38 89.62z"/><path d="M209.247 76.928c4.842-2.032 10.44.239 12.473 5.081 2.032 4.842-.239 10.44-5.081 12.473-27.356 11.557-52.103 28.413-72.923 49.214-20.821 20.821-37.657 45.587-49.253 72.943-2.032 4.842-7.631 7.113-12.473 5.081-4.842-2.032-7.113-7.611-5.081-12.473 12.612-29.827 30.843-56.645 53.258-79.08a249.053 249.053 0 0 1 79.08-53.239zM57.343 306.02c0 32.995 6.535 65.254 18.888 95.141l.02.04h-.02a248.731 248.731 0 0 0 53.936 80.653l.538.498c23.252 23.112 50.489 41.145 80.096 53.417A248.687 248.687 0 0 0 306 554.677a248.75 248.75 0 0 0 95.14-18.888l.04-.021v.021c29.848-12.373 57.282-30.584 80.653-53.936a248.98 248.98 0 0 0 53.936-80.654l.221-.56c12.232-29.727 18.669-61.806 18.669-94.62 0-32.996-6.535-65.272-18.89-95.14l-.02-.04h.02a248.306 248.306 0 0 0-53.936-80.654 248.375 248.375 0 0 0-80.653-53.916c-29.848-12.373-62.125-18.908-95.16-18.908-5.279 0-9.562 4.304-9.562 9.563 0 5.28 4.284 9.563 9.562 9.563 30.604 0 60.393 6.017 87.849 17.394v-.02l.04.02c27.476 11.377 52.8 28.213 74.417 49.831 21.618 21.618 38.455 46.922 49.832 74.438 11.355 27.456 17.374 57.263 17.374 87.868 0 30.465-5.958 60.132-17.215 87.487l-.159.379c-11.397 27.517-28.233 52.819-49.832 74.438-21.617 21.618-46.941 38.454-74.438 49.852v.021c-27.476 11.356-57.263 17.374-87.867 17.374-30.583 0-60.371-5.997-87.867-17.395v.021l-.04-.021c-27.316-11.298-52.441-27.975-73.94-49.333l-.458-.498c-21.618-21.617-38.454-46.941-49.851-74.438h-.02C82.487 366.45 76.47 336.644 76.47 306.04c0-5.28-4.284-9.563-9.564-9.563-5.28-.041-9.563 4.263-9.563 9.543z"/><path d="M346.586 346.586c-11.197 11.197-25.901 16.816-40.566 16.816-14.684 0-29.388-5.6-40.585-16.816-11.197-11.197-16.796-25.901-16.796-40.586 0-14.665 5.599-29.369 16.796-40.586 11.198-11.197 25.902-16.816 40.585-16.816 14.665 0 29.369 5.599 40.566 16.816 11.197 11.198 16.816 25.902 16.816 40.586 0 14.684-5.598 29.389-16.816 40.586zm-40.566-2.331a38.242 38.242 0 0 0 27.059-11.197c7.472-7.472 11.218-17.273 11.218-27.058s-3.746-19.586-11.218-27.058-17.274-11.217-27.059-11.217c-9.783 0-19.604 3.746-27.057 11.217-7.472 7.472-11.197 17.274-11.197 27.058s3.746 19.586 11.197 27.058c7.451 7.472 17.254 11.197 27.057 11.197z"/></g></svg>