<?xml version="1.0" encoding="iso-8859-1"?>
<!-- Generator: Adobe Illustrator 16.0.0, SVG Export Plug-In . SVG Version: 6.00 Build 0)  -->
<!DOCTYPE svg PUBLIC "-//W3C//DTD SVG 1.1//EN" "http://www.w3.org/Graphics/SVG/1.1/DTD/svg11.dtd">
<svg xmlns="http://www.w3.org/2000/svg" xmlns:xlink="http://www.w3.org/1999/xlink" version="1.1" id="Capa_1" x="0px" y="0px" width="512px" height="512px" viewBox="0 0 612 612" style="enable-background:new 0 0 612 612;" xml:space="preserve">
<g>
	<g>
		<g>
			<path d="M387.172,387.192L387.172,387.192c-22.415,22.415-51.803,33.632-81.172,33.632s-58.757-11.197-81.152-33.612l-0.02-0.02     c-22.415-22.415-33.612-51.805-33.612-81.173h0.04c-0.02-29.37,11.198-58.757,33.553-81.133l0.02-0.02l-0.02-0.02     c22.415-22.415,51.804-33.613,81.192-33.613c29.309,0,58.697,11.198,81.112,33.613l0.021,0.02l0.021,0.02l0.02,0.02     c22.415,22.435,33.593,51.804,33.593,81.113C420.785,335.389,409.567,364.777,387.172,387.192L387.172,387.192z M373.624,373.663     L373.624,373.663c18.688-18.669,28.033-43.176,28.033-67.663c0-24.507-9.324-49.014-27.975-67.644l-0.04-0.04     c-18.629-18.649-43.137-27.974-67.624-27.974c-24.486,0-48.974,9.345-67.643,28.014l-0.02-0.02     c-18.669,18.709-28.034,43.196-28.034,67.664h0.04c0,24.467,9.345,48.975,28.014,67.623l0,0     c18.669,18.67,43.136,28.015,67.624,28.015C330.467,401.677,354.954,392.333,373.624,373.663z" fill="#3ec7c2"/>
			<path d="M592.872,306.02c0-79.22-32.118-150.947-84.021-202.851C456.948,51.246,385.22,19.127,306,19.127     c-79.22,0-150.948,32.118-202.851,84.021C51.246,155.052,19.127,226.8,19.127,306.02c0,79.221,32.118,150.948,84.021,202.853     S226.78,592.893,306,592.893c79.22,0,150.948-32.117,202.851-84.021C560.754,456.968,592.872,385.22,592.872,306.02     L592.872,306.02z M522.38,89.62C577.75,144.99,612,221.5,612,306c0,84.479-34.25,161.01-89.62,216.38S390.5,612,306,612     s-161.01-34.25-216.38-89.62S0,390.52,0,306.02c0-84.5,34.25-161.009,89.62-216.378C144.99,34.271,221.5,0,306,0     S467.01,34.25,522.38,89.62z" fill="#3ec7c2"/>
			<path d="M209.247,76.928c4.842-2.032,10.44,0.239,12.473,5.081c2.032,4.842-0.239,10.44-5.081,12.473     c-27.356,11.557-52.103,28.413-72.923,49.214c-20.821,20.821-37.657,45.587-49.253,72.943c-2.032,4.842-7.631,7.113-12.473,5.081     c-4.842-2.032-7.113-7.611-5.081-12.473c12.612-29.827,30.843-56.645,53.258-79.08C152.602,107.731,179.42,89.541,209.247,76.928     L209.247,76.928z M57.343,306.02c0,32.995,6.535,65.254,18.888,95.141l0.02,0.04h-0.02     c12.373,29.847,30.584,57.303,53.936,80.653l0.538,0.498c23.252,23.112,50.489,41.145,80.096,53.417l0,0     c29.887,12.373,62.165,18.908,95.199,18.908c33.015,0,65.272-6.535,95.14-18.888l0.04-0.021v0.021     c29.848-12.373,57.282-30.584,80.653-53.936c23.332-23.332,41.543-50.788,53.936-80.654l0.221-0.56     c12.232-29.727,18.669-61.806,18.669-94.62c0-32.996-6.535-65.272-18.89-95.14l-0.02-0.04h0.02     c-12.372-29.867-30.584-57.323-53.936-80.654c-23.291-23.312-50.747-41.523-80.653-53.916l0,0     c-29.848-12.373-62.125-18.908-95.16-18.908c-5.279,0-9.562,4.304-9.562,9.563c0,5.28,4.284,9.563,9.562,9.563     c30.604,0,60.393,6.017,87.849,17.394v-0.02l0.04,0.02c27.476,11.377,52.8,28.213,74.417,49.831     c21.618,21.618,38.455,46.922,49.832,74.438l0,0c11.355,27.456,17.374,57.263,17.374,87.868c0,30.465-5.958,60.132-17.215,87.487     l-0.159,0.379c-11.397,27.517-28.233,52.819-49.832,74.438c-21.617,21.618-46.941,38.454-74.438,49.852v0.021     c-27.476,11.356-57.263,17.374-87.867,17.374c-30.583,0-60.371-5.997-87.867-17.395v0.021l-0.04-0.021     c-27.316-11.298-52.441-27.975-73.94-49.333l-0.458-0.498c-21.618-21.617-38.454-46.941-49.851-74.438h-0.02     C82.487,366.45,76.47,336.644,76.47,306.04c0-5.28-4.284-9.563-9.564-9.563C61.626,296.436,57.343,300.74,57.343,306.02z" fill="#3ec7c2"/>
			<path d="M346.586,346.586c-11.197,11.197-25.901,16.816-40.566,16.816c-14.684,0-29.388-5.6-40.585-16.816     c-11.197-11.197-16.796-25.901-16.796-40.586c0-14.665,5.599-29.369,16.796-40.586c11.198-11.197,25.902-16.816,40.585-16.816     c14.665,0,29.369,5.599,40.566,16.816c11.197,11.198,16.816,25.902,16.816,40.586     C363.402,320.684,357.804,335.389,346.586,346.586L346.586,346.586z M306.02,344.255c9.783,0,19.587-3.746,27.059-11.197     c7.472-7.472,11.218-17.273,11.218-27.058s-3.746-19.586-11.218-27.058s-17.274-11.217-27.059-11.217     c-9.783,0-19.604,3.746-27.057,11.217c-7.472,7.472-11.197,17.274-11.197,27.058s3.746,19.586,11.197,27.058     C286.414,340.53,296.217,344.255,306.02,344.255z" fill="#3ec7c2"/>
		</g>
	</g>
</g>
<g>
</g>
<g>
</g>
<g>
</g>
<g>
</g>
<g>
</g>
<g>
</g>
<g>
</g>
<g>
</g>
<g>
</g>
<g>
</g>
<g>
</g>
<g>
</g>
<g>
</g>
<g>
</g>
<g>
</g>
</svg>
